<?xml version="1.0" encoding="UTF-8"?>
<svg id="Ebene_2" xmlns="http://www.w3.org/2000/svg" viewBox="0 0 512 562.71">
  <defs>
    <style>
      .cls-1 {
        fill: #fff;
      }
    </style>
  </defs>
  <g id="Ebene_1-2" data-name="Ebene_1">
    <path class="cls-1" d="M507.86,498.26l-152.6-313V15.87c0-8.76-7.1-15.87-15.87-15.87h-166.78c-8.76,0-15.87,7.1-15.87,15.87v169.39L4.14,498.26c-6.93,16.49-5.1,32.96,5.03,45.2,10.13,12.24,27.74,19.25,48.32,19.25h397.03c20.58,0,38.19-7.02,48.32-19.25,10.13-12.23,11.96-28.71,5.03-45.2ZM91.91,409.76c5.17,0,9.85,1.87,13.6,4.87l82.24-58.32c-.08-.66-.2-1.32-.2-2,0-8.74,7.08-15.82,15.82-15.82s15.82,7.08,15.82,15.82c0,.58-.11,1.14-.17,1.7l64.17,43.45c5.17-4.46,11.89-7.18,19.25-7.18,3.54,0,6.92.66,10.06,1.8l34.51-62.17c-2.75-3.23-4.48-7.37-4.48-11.95,0-10.24,8.3-18.54,18.54-18.54s18.54,8.3,18.54,18.54-8.3,18.54-18.54,18.54c-.93,0-1.82-.14-2.71-.27l-34.9,62.88c5.23,5.32,8.47,12.62,8.47,20.67,0,16.29-13.2,29.5-29.49,29.5s-29.5-13.21-29.5-29.5c0-4.22.9-8.23,2.5-11.87l-63.02-42.67c-2.57,1.81-5.69,2.89-9.07,2.89s-6.31-1-8.84-2.7l-81.76,57.99c.59,1.98,1,4.03,1,6.2,0,12.07-9.78,21.85-21.85,21.85s-21.85-9.78-21.85-21.85,9.78-21.85,21.85-21.85ZM448.96,514.01c-5.34,8.94-15.1,14.22-25.62,14.22H88.65c-10.51,0-20.28-5.28-25.62-14.22-5.34-8.93-5.47-19.88-.38-28.96l12.64-22.42c4.84,2.57,10.35,4.03,16.21,4.03,17.95,0,32.71-13.66,34.46-31.15l71.32-49.73c2.08.42,4.24.64,6.44.64s4.45-.23,6.57-.67l48.97,33.26c-1.45,22.31,14.45,42.34,36.96,45.61,23.66,3.43,45.63-12.97,49.07-36.63,1.33-9.2-.36-18.13-4.28-25.83l28.47-50.87c2.65-.71,5.17-1.72,7.5-3.04l72.36,136.82c5.12,9.07,4.97,19.99-.37,28.94Z"/>
  </g>
</svg>